<?xml version="1.0" encoding="UTF-8"?>
<!DOCTYPE svg PUBLIC "-//W3C//DTD SVG 1.1//EN" "http://www.w3.org/Graphics/SVG/1.1/DTD/svg11.dtd">
<svg width="160mm" height="97mm" viewBox="0 0 16000 9700" version="1.1" xmlns="http://www.w3.org/2000/svg" xmlns:xlink="http://www.w3.org/1999/xlink" stroke-width="28.222" stroke-linejoin="round" xml:space="preserve">
 <path fill="rgb(255,255,255)" stroke="none" d="M 7987,9686 L -11,9686 -11,-11 15985,-11 15985,9686 7987,9686 Z"/>
 <path fill="none" stroke="rgb(179,179,179)" stroke-linejoin="round" d="M 8018,8840 L 964,8840 964,182 15072,182 15072,8840 8018,8840 Z"/>
 <path fill="none" stroke="rgb(179,179,179)" stroke-linejoin="round" d="M 964,181 L 964,8839"/>
 <path fill="none" stroke="rgb(179,179,179)" stroke-linejoin="round" d="M 2727,181 L 2727,8839"/>
 <path fill="none" stroke="rgb(179,179,179)" stroke-linejoin="round" d="M 4491,181 L 4491,8839"/>
 <path fill="none" stroke="rgb(179,179,179)" stroke-linejoin="round" d="M 6254,181 L 6254,8839"/>
 <path fill="none" stroke="rgb(179,179,179)" stroke-linejoin="round" d="M 8017,181 L 8017,8839"/>
 <path fill="none" stroke="rgb(179,179,179)" stroke-linejoin="round" d="M 9781,181 L 9781,8839"/>
 <path fill="none" stroke="rgb(179,179,179)" stroke-linejoin="round" d="M 11544,181 L 11544,8839"/>
 <path fill="none" stroke="rgb(179,179,179)" stroke-linejoin="round" d="M 13308,181 L 13308,8839"/>
 <path fill="none" stroke="rgb(179,179,179)" stroke-linejoin="round" d="M 15072,181 L 15072,8839"/>
 <path fill="none" stroke="rgb(179,179,179)" stroke-linejoin="round" d="M 9631,8839 L 9781,8839"/>
 <path fill="none" stroke="rgb(179,179,179)" stroke-linejoin="round" d="M 9631,8839 L 9781,8839"/>
 <path fill="none" stroke="rgb(179,179,179)" stroke-linejoin="round" d="M 9631,8357 L 9781,8357"/>
 <path fill="none" stroke="rgb(179,179,179)" stroke-linejoin="round" d="M 9631,8357 L 9781,8357"/>
 <path fill="none" stroke="rgb(179,179,179)" stroke-linejoin="round" d="M 9631,7876 L 9781,7876"/>
 <path fill="none" stroke="rgb(179,179,179)" stroke-linejoin="round" d="M 9631,7876 L 9781,7876"/>
 <path fill="none" stroke="rgb(179,179,179)" stroke-linejoin="round" d="M 9631,7395 L 9781,7395"/>
 <path fill="none" stroke="rgb(179,179,179)" stroke-linejoin="round" d="M 9631,7395 L 9781,7395"/>
 <path fill="none" stroke="rgb(179,179,179)" stroke-linejoin="round" d="M 9631,6914 L 9781,6914"/>
 <path fill="none" stroke="rgb(179,179,179)" stroke-linejoin="round" d="M 9631,6914 L 9781,6914"/>
 <path fill="none" stroke="rgb(179,179,179)" stroke-linejoin="round" d="M 9631,6433 L 9781,6433"/>
 <path fill="none" stroke="rgb(179,179,179)" stroke-linejoin="round" d="M 9631,6433 L 9781,6433"/>
 <path fill="none" stroke="rgb(179,179,179)" stroke-linejoin="round" d="M 9631,5952 L 9781,5952"/>
 <path fill="none" stroke="rgb(179,179,179)" stroke-linejoin="round" d="M 9631,5952 L 9781,5952"/>
 <path fill="none" stroke="rgb(179,179,179)" stroke-linejoin="round" d="M 9631,5471 L 9781,5471"/>
 <path fill="none" stroke="rgb(179,179,179)" stroke-linejoin="round" d="M 9631,5471 L 9781,5471"/>
 <path fill="none" stroke="rgb(179,179,179)" stroke-linejoin="round" d="M 9631,4990 L 9781,4990"/>
 <path fill="none" stroke="rgb(179,179,179)" stroke-linejoin="round" d="M 9631,4990 L 9781,4990"/>
 <path fill="none" stroke="rgb(179,179,179)" stroke-linejoin="round" d="M 9631,4510 L 9781,4510"/>
 <path fill="none" stroke="rgb(179,179,179)" stroke-linejoin="round" d="M 9631,4510 L 9781,4510"/>
 <path fill="none" stroke="rgb(179,179,179)" stroke-linejoin="round" d="M 9631,4029 L 9781,4029"/>
 <path fill="none" stroke="rgb(179,179,179)" stroke-linejoin="round" d="M 9631,4029 L 9781,4029"/>
 <path fill="none" stroke="rgb(179,179,179)" stroke-linejoin="round" d="M 9631,3548 L 9781,3548"/>
 <path fill="none" stroke="rgb(179,179,179)" stroke-linejoin="round" d="M 9631,3548 L 9781,3548"/>
 <path fill="none" stroke="rgb(179,179,179)" stroke-linejoin="round" d="M 9631,3067 L 9781,3067"/>
 <path fill="none" stroke="rgb(179,179,179)" stroke-linejoin="round" d="M 9631,3067 L 9781,3067"/>
 <path fill="none" stroke="rgb(179,179,179)" stroke-linejoin="round" d="M 9631,2586 L 9781,2586"/>
 <path fill="none" stroke="rgb(179,179,179)" stroke-linejoin="round" d="M 9631,2586 L 9781,2586"/>
 <path fill="none" stroke="rgb(179,179,179)" stroke-linejoin="round" d="M 9631,2105 L 9781,2105"/>
 <path fill="none" stroke="rgb(179,179,179)" stroke-linejoin="round" d="M 9631,2105 L 9781,2105"/>
 <path fill="none" stroke="rgb(179,179,179)" stroke-linejoin="round" d="M 9631,1624 L 9781,1624"/>
 <path fill="none" stroke="rgb(179,179,179)" stroke-linejoin="round" d="M 9631,1624 L 9781,1624"/>
 <path fill="none" stroke="rgb(179,179,179)" stroke-linejoin="round" d="M 9631,1143 L 9781,1143"/>
 <path fill="none" stroke="rgb(179,179,179)" stroke-linejoin="round" d="M 9631,1143 L 9781,1143"/>
 <path fill="none" stroke="rgb(179,179,179)" stroke-linejoin="round" d="M 9631,662 L 9781,662"/>
 <path fill="none" stroke="rgb(179,179,179)" stroke-linejoin="round" d="M 9631,662 L 9781,662"/>
 <path fill="none" stroke="rgb(179,179,179)" stroke-linejoin="round" d="M 9631,181 L 9781,181"/>
 <path fill="none" stroke="rgb(179,179,179)" stroke-linejoin="round" d="M 9631,181 L 9781,181"/>
 <path fill="none" stroke="rgb(179,179,179)" stroke-linejoin="round" d="M 9781,8839 L 9781,181"/>
 <path fill="none" stroke="rgb(179,179,179)" stroke-linejoin="round" d="M 964,8989 L 964,8839"/>
 <path fill="none" stroke="rgb(179,179,179)" stroke-linejoin="round" d="M 964,8989 L 964,8839"/>
 <path fill="none" stroke="rgb(179,179,179)" stroke-linejoin="round" d="M 2727,8989 L 2727,8839"/>
 <path fill="none" stroke="rgb(179,179,179)" stroke-linejoin="round" d="M 2727,8989 L 2727,8839"/>
 <path fill="none" stroke="rgb(179,179,179)" stroke-linejoin="round" d="M 4491,8989 L 4491,8839"/>
 <path fill="none" stroke="rgb(179,179,179)" stroke-linejoin="round" d="M 4491,8989 L 4491,8839"/>
 <path fill="none" stroke="rgb(179,179,179)" stroke-linejoin="round" d="M 6254,8989 L 6254,8839"/>
 <path fill="none" stroke="rgb(179,179,179)" stroke-linejoin="round" d="M 6254,8989 L 6254,8839"/>
 <path fill="none" stroke="rgb(179,179,179)" stroke-linejoin="round" d="M 8017,8989 L 8017,8839"/>
 <path fill="none" stroke="rgb(179,179,179)" stroke-linejoin="round" d="M 8017,8989 L 8017,8839"/>
 <path fill="none" stroke="rgb(179,179,179)" stroke-linejoin="round" d="M 9781,8989 L 9781,8839"/>
 <path fill="none" stroke="rgb(179,179,179)" stroke-linejoin="round" d="M 9781,8989 L 9781,8839"/>
 <path fill="none" stroke="rgb(179,179,179)" stroke-linejoin="round" d="M 11544,8989 L 11544,8839"/>
 <path fill="none" stroke="rgb(179,179,179)" stroke-linejoin="round" d="M 11544,8989 L 11544,8839"/>
 <path fill="none" stroke="rgb(179,179,179)" stroke-linejoin="round" d="M 13308,8989 L 13308,8839"/>
 <path fill="none" stroke="rgb(179,179,179)" stroke-linejoin="round" d="M 13308,8989 L 13308,8839"/>
 <path fill="none" stroke="rgb(179,179,179)" stroke-linejoin="round" d="M 15072,8989 L 15072,8839"/>
 <path fill="none" stroke="rgb(179,179,179)" stroke-linejoin="round" d="M 15072,8989 L 15072,8839"/>
 <path fill="none" stroke="rgb(179,179,179)" stroke-linejoin="round" d="M 964,8839 L 15072,8839"/>
 <path fill="rgb(0,191,255)" stroke="none" d="M 9781,8718 L 9781,8478 14366,8478 14366,8718 9781,8718 Z"/>
 <path fill="rgb(0,191,255)" stroke="none" d="M 9781,8237 L 9781,7997 14013,7997 14013,8237 9781,8237 Z"/>
 <path fill="rgb(0,191,255)" stroke="none" d="M 9781,7756 L 9781,7516 10839,7516 10839,7756 9781,7756 Z"/>
 <path fill="rgb(0,191,255)" stroke="none" d="M 9781,7275 L 9781,7035 10133,7035 10133,7275 9781,7275 Z"/>
 <path fill="rgb(0,191,255)" stroke="none" d="M 9781,6794 L 9781,6553 9781,6553 9781,6794 Z"/>
 <path fill="rgb(0,191,255)" stroke="none" d="M 9428,6313 L 9428,6072 9781,6072 9781,6313 9428,6313 Z"/>
 <path fill="rgb(0,191,255)" stroke="none" d="M 9380,5832 L 9380,5591 9781,5591 9781,5832 9380,5832 Z"/>
 <path fill="rgb(0,191,255)" stroke="none" d="M 9075,5351 L 9075,5110 9781,5110 9781,5351 9075,5351 Z"/>
 <path fill="rgb(0,191,255)" stroke="none" d="M 9075,4870 L 9075,4630 9781,4630 9781,4870 9075,4870 Z"/>
 <path fill="rgb(0,191,255)" stroke="none" d="M 8722,4390 L 8722,4149 9781,4149 9781,4390 8722,4390 Z"/>
 <path fill="rgb(0,191,255)" stroke="none" d="M 8017,3909 L 8017,3668 9781,3668 9781,3909 8017,3909 Z"/>
 <path fill="rgb(0,191,255)" stroke="none" d="M 7665,3428 L 7665,3187 9781,3187 9781,3428 7665,3428 Z"/>
 <path fill="rgb(0,191,255)" stroke="none" d="M 7313,2947 L 7313,2706 9781,2706 9781,2947 7313,2947 Z"/>
 <path fill="rgb(0,191,255)" stroke="none" d="M 7313,2466 L 7313,2225 9781,2225 9781,2466 7313,2466 Z"/>
 <path fill="rgb(0,191,255)" stroke="none" d="M 5712,1984 L 5712,1744 9781,1744 9781,1984 5712,1984 Z"/>
 <path fill="rgb(0,191,255)" stroke="none" d="M 5196,1503 L 5196,1263 9781,1263 9781,1503 5196,1503 Z"/>
 <path fill="rgb(0,191,255)" stroke="none" d="M 3080,1022 L 3080,782 9781,782 9781,1022 3080,1022 Z"/>
 <path fill="rgb(0,191,255)" stroke="none" d="M 2727,541 L 2727,301 9781,301 9781,541 2727,541 Z"/>
 <text class="SVGTextShape"><tspan class="TextParagraph" font-family="Liberation Sans, sans-serif" font-size="353px" font-weight="400"><tspan class="TextPosition" x="8769" y="8715"><tspan fill="rgb(0,0,0)" stroke="none" style="white-space: pre">hash</tspan></tspan></tspan></text>
 <text class="SVGTextShape"><tspan class="TextParagraph" font-family="Liberation Sans, sans-serif" font-size="353px" font-weight="400"><tspan class="TextPosition" x="8536" y="8234"><tspan fill="rgb(0,0,0)" stroke="none" style="white-space: pre">matrix</tspan></tspan></tspan></text>
 <text class="SVGTextShape"><tspan class="TextParagraph" font-family="Liberation Sans, sans-serif" font-size="353px" font-weight="400"><tspan class="TextPosition" x="8155" y="7753"><tspan fill="rgb(0,0,0)" stroke="none" style="white-space: pre">heapsort</tspan></tspan></tspan></text>
 <text class="SVGTextShape"><tspan class="TextParagraph" font-family="Liberation Sans, sans-serif" font-size="353px" font-weight="400"><tspan class="TextPosition" x="6886" y="7272"><tspan fill="rgb(0,0,0)" stroke="none" style="white-space: pre">funnkuch-reduce</tspan></tspan></tspan></text>
 <text class="SVGTextShape"><tspan class="TextParagraph" font-family="Liberation Sans, sans-serif" font-size="353px" font-weight="400"><tspan class="TextPosition" x="7690" y="6791"><tspan fill="rgb(0,0,0)" stroke="none" style="white-space: pre">method-call</tspan></tspan></tspan></text>
 <text class="SVGTextShape"><tspan class="TextParagraph" font-family="Liberation Sans, sans-serif" font-size="353px" font-weight="400"><tspan class="TextPosition" x="7627" y="6310"><tspan fill="rgb(0,0,0)" stroke="none" style="white-space: pre">binary-trees</tspan></tspan></tspan></text>
 <text class="SVGTextShape"><tspan class="TextParagraph" font-family="Liberation Sans, sans-serif" font-size="353px" font-weight="400"><tspan class="TextPosition" x="8409" y="5829"><tspan fill="rgb(0,0,0)" stroke="none" style="white-space: pre">minilua</tspan></tspan></tspan></text>
 <text class="SVGTextShape"><tspan class="TextParagraph" font-family="Liberation Sans, sans-serif" font-size="353px" font-weight="400"><tspan class="TextPosition" x="8875" y="5348"><tspan fill="rgb(0,0,0)" stroke="none" style="white-space: pre">lists</tspan></tspan></tspan></text>
 <text class="SVGTextShape"><tspan class="TextParagraph" font-family="Liberation Sans, sans-serif" font-size="353px" font-weight="400"><tspan class="TextPosition" x="8578" y="4868"><tspan fill="rgb(0,0,0)" stroke="none" style="white-space: pre">nbody</tspan></tspan></tspan></text>
 <text class="SVGTextShape"><tspan class="TextParagraph" font-family="Liberation Sans, sans-serif" font-size="353px" font-weight="400"><tspan class="TextPosition" x="8621" y="4386"><tspan fill="rgb(0,0,0)" stroke="none" style="white-space: pre">strcat</tspan></tspan></tspan></text>
 <text class="SVGTextShape"><tspan class="TextParagraph" font-family="Liberation Sans, sans-serif" font-size="353px" font-weight="400"><tspan class="TextPosition" x="7775" y="3905"><tspan fill="rgb(0,0,0)" stroke="none" style="white-space: pre">mandelbrot</tspan></tspan></tspan></text>
 <text class="SVGTextShape"><tspan class="TextParagraph" font-family="Liberation Sans, sans-serif" font-size="353px" font-weight="400"><tspan class="TextPosition" x="7331" y="3424"><tspan fill="rgb(0,0,0)" stroke="none" style="white-space: pre">spectral-norm</tspan></tspan></tspan></text>
 <text class="SVGTextShape"><tspan class="TextParagraph" font-family="Liberation Sans, sans-serif" font-size="353px" font-weight="400"><tspan class="TextPosition" x="8705" y="2943"><tspan fill="rgb(0,0,0)" stroke="none" style="white-space: pre">array</tspan></tspan></tspan></text>
 <text class="SVGTextShape"><tspan class="TextParagraph" font-family="Liberation Sans, sans-serif" font-size="353px" font-weight="400"><tspan class="TextPosition" x="8684" y="2462"><tspan fill="rgb(0,0,0)" stroke="none" style="white-space: pre">sieve</tspan></tspan></tspan></text>
 <text class="SVGTextShape"><tspan class="TextParagraph" font-family="Liberation Sans, sans-serif" font-size="353px" font-weight="400"><tspan class="TextPosition" x="8388" y="1981"><tspan fill="rgb(0,0,0)" stroke="none" style="white-space: pre">oggenc</tspan></tspan></tspan></text>
 <text class="SVGTextShape"><tspan class="TextParagraph" font-family="Liberation Sans, sans-serif" font-size="353px" font-weight="400"><tspan class="TextPosition" x="8578" y="1500"><tspan fill="rgb(0,0,0)" stroke="none" style="white-space: pre">hash2</tspan></tspan></tspan></text>
 <text class="SVGTextShape"><tspan class="TextParagraph" font-family="Liberation Sans, sans-serif" font-size="353px" font-weight="400"><tspan class="TextPosition" x="8684" y="1019"><tspan fill="rgb(0,0,0)" stroke="none" style="white-space: pre">bzip2</tspan></tspan></tspan></text>
 <text class="SVGTextShape"><tspan class="TextParagraph" font-family="Liberation Sans, sans-serif" font-size="353px" font-weight="400"><tspan class="TextPosition" x="8875" y="538"><tspan fill="rgb(0,0,0)" stroke="none" style="white-space: pre">gzip</tspan></tspan></tspan></text>
 <text class="SVGTextShape"><tspan class="TextParagraph" font-family="Liberation Sans, sans-serif" font-size="353px" font-weight="400"><tspan class="TextPosition" x="308" y="9407"><tspan fill="rgb(0,0,0)" stroke="none" style="white-space: pre">-25.00%</tspan></tspan></tspan></text>
 <text class="SVGTextShape"><tspan class="TextParagraph" font-family="Liberation Sans, sans-serif" font-size="353px" font-weight="400"><tspan class="TextPosition" x="2071" y="9407"><tspan fill="rgb(0,0,0)" stroke="none" style="white-space: pre">-20.00%</tspan></tspan></tspan></text>
 <text class="SVGTextShape"><tspan class="TextParagraph" font-family="Liberation Sans, sans-serif" font-size="353px" font-weight="400"><tspan class="TextPosition" x="3835" y="9407"><tspan fill="rgb(0,0,0)" stroke="none" style="white-space: pre">-15.00%</tspan></tspan></tspan></text>
 <text class="SVGTextShape"><tspan class="TextParagraph" font-family="Liberation Sans, sans-serif" font-size="353px" font-weight="400"><tspan class="TextPosition" x="5598" y="9407"><tspan fill="rgb(0,0,0)" stroke="none" style="white-space: pre">-10.00%</tspan></tspan></tspan></text>
 <text class="SVGTextShape"><tspan class="TextParagraph" font-family="Liberation Sans, sans-serif" font-size="353px" font-weight="400"><tspan class="TextPosition" x="7457" y="9407"><tspan fill="rgb(0,0,0)" stroke="none" style="white-space: pre">-5.00%</tspan></tspan></tspan></text>
 <text class="SVGTextShape"><tspan class="TextParagraph" font-family="Liberation Sans, sans-serif" font-size="353px" font-weight="400"><tspan class="TextPosition" x="9283" y="9407"><tspan fill="rgb(0,0,0)" stroke="none" style="white-space: pre">0.00%</tspan></tspan></tspan></text>
 <text class="SVGTextShape"><tspan class="TextParagraph" font-family="Liberation Sans, sans-serif" font-size="353px" font-weight="400"><tspan class="TextPosition" x="11046" y="9407"><tspan fill="rgb(0,0,0)" stroke="none" style="white-space: pre">5.00%</tspan></tspan></tspan></text>
 <text class="SVGTextShape"><tspan class="TextParagraph" font-family="Liberation Sans, sans-serif" font-size="353px" font-weight="400"><tspan class="TextPosition" x="12715" y="9407"><tspan fill="rgb(0,0,0)" stroke="none" style="white-space: pre">10.00%</tspan></tspan></tspan></text>
 <text class="SVGTextShape"><tspan class="TextParagraph" font-family="Liberation Sans, sans-serif" font-size="353px" font-weight="400"><tspan class="TextPosition" x="14479" y="9407"><tspan fill="rgb(0,0,0)" stroke="none" style="white-space: pre">15.00%</tspan></tspan></tspan></text>
</svg>